<svg xmlns="http://www.w3.org/2000/svg" width="2000" height="400" fill="none"><path fill="url(#a)" fill-rule="evenodd" d="M192 60c-77.32 0-140 62.68-140 140s62.68 140 140 140 140-62.68 140-140S269.32 60 192 60M71 200c0-66.826 54.174-121 121-121s121 54.174 121 121-54.174 121-121 121S71 266.826 71 200m70.009 73V127.545h60.085q16.335 0 28.196 5.895 11.931 5.824 18.395 16.762 6.462 10.866 6.463 25.781 0 15.127-6.605 25.71-6.558 10.436-18.575 15.971L259.119 273h-38.352l-26.596-49.787h-18.006V273zm52.485-77.486h-17.329v-39.631h17.329q7.884 0 13.282 2.273 5.398 2.202 8.167 6.676 2.77 4.404 2.77 11.151t-2.77 11.079q-2.77 4.262-8.167 6.392-5.328 2.06-13.282 2.06" clip-rule="evenodd"/><path fill="#fff" d="M413.21 287V112.455h72.102q19.603 0 33.836 7.074 14.317 6.988 22.074 20.113 7.755 13.04 7.755 30.938 0 18.153-7.926 30.852-7.926 12.613-22.5 19.261-14.573 6.563-34.517 6.563h-45.597v-33.239h37.756q9.545 0 15.938-2.471 6.477-2.558 9.801-7.671 3.324-5.2 3.324-13.295 0-8.097-3.324-13.381-3.324-5.37-9.801-8.011-6.478-2.728-15.938-2.728h-20.795V287zm98.267-79.773L554.943 287H508.92l-42.613-79.773zM597.02 289.216q-12.528 0-22.244-4.176-9.631-4.261-15.256-12.784-5.54-8.608-5.54-21.563 0-10.908 3.835-18.409t10.568-12.187q6.734-4.687 15.512-7.074 8.778-2.472 18.75-3.324 11.164-1.023 17.983-2.131 6.818-1.192 9.886-3.324 3.153-2.216 3.154-6.221v-.426q0-6.563-4.517-10.142-4.517-3.58-12.188-3.58-8.267 0-13.295 3.58t-6.392 9.886l-38.438-1.364q1.705-11.931 8.778-21.306 7.16-9.46 19.603-14.83 12.528-5.454 30.085-5.455 12.528 0 23.097 2.983 10.567 2.898 18.409 8.523 7.84 5.54 12.102 13.637 4.347 8.096 4.346 18.494V287h-39.204v-18.239h-1.023q-3.494 6.648-8.949 11.25-5.368 4.603-12.699 6.904-7.244 2.301-16.363 2.301m12.869-27.273q6.733 0 12.102-2.727 5.456-2.727 8.694-7.5 3.238-4.858 3.238-11.25v-12.443q-1.79.938-4.346 1.704a74 74 0 0 1-5.455 1.449 97 97 0 0 1-6.136 1.193q-3.154.512-6.051.938-5.881.937-10.057 2.898-4.091 1.96-6.307 5.113-2.13 3.069-2.131 7.33 0 6.477 4.603 9.886 4.687 3.41 11.846 3.409M688.741 287V156.091h41.677V287zm20.881-146.165q-8.778 0-15.085-5.795-6.307-5.881-6.307-14.148 0-8.182 6.307-13.977 6.306-5.881 15.085-5.881 8.864 0 15.085 5.881 6.307 5.795 6.307 13.977 0 8.267-6.307 14.148-6.221 5.796-15.085 5.795M786.621 112.455V287h-41.676V112.455zM915.437 196.063l-38.267 1.022q-.596-4.09-3.238-7.244-2.643-3.238-6.904-5.028-4.176-1.875-9.716-1.875-7.243 0-12.357 2.897-5.029 2.898-4.944 7.841-.085 3.836 3.069 6.648 3.239 2.813 11.505 4.517l25.227 4.773q19.604 3.75 29.148 12.443 9.631 8.693 9.716 23.011-.085 13.466-8.011 23.438-7.842 9.972-21.478 15.511-13.635 5.455-31.193 5.455-28.04 0-44.233-11.506-16.108-11.59-18.409-31.023l41.165-1.022q1.364 7.159 7.074 10.909t14.574 3.75q8.011 0 13.04-2.983 5.028-2.983 5.113-7.926-.085-4.433-3.92-7.074-3.836-2.727-12.017-4.262l-22.841-4.346q-19.688-3.58-29.318-13.21-9.631-9.716-9.546-24.716-.085-13.125 6.989-22.415 7.074-9.375 20.113-14.318 13.04-4.944 30.767-4.944 26.592 0 41.932 11.165 15.342 11.08 16.96 30.512M1031.27 287h-64.513V112.455h64.433c17.78 0 33.1 3.494 45.94 10.483 12.89 6.931 22.84 16.931 29.83 30 6.98 13.011 10.48 28.579 10.48 46.704 0 18.182-3.5 33.807-10.48 46.875-6.94 13.068-16.85 23.097-29.75 30.085-12.9 6.932-28.21 10.398-45.94 10.398m-22.33-35.966h20.71c9.78 0 18.04-1.648 24.81-4.943 6.81-3.352 11.96-8.778 15.42-16.278 3.52-7.557 5.29-17.614 5.29-30.171s-1.77-22.557-5.29-30c-3.52-7.5-8.72-12.898-15.59-16.193q-10.23-5.028-25.23-5.028h-20.12zM1191.26 289.472c-13.69 0-25.51-2.699-35.45-8.097-9.89-5.454-17.5-13.21-22.84-23.267-5.29-10.114-7.93-22.131-7.93-36.051q0-20.284 8.01-35.455 8.01-15.255 22.59-23.693c9.71-5.682 21.16-8.523 34.34-8.523 9.32 0 17.85 1.449 25.57 4.347 7.73 2.898 14.41 7.188 20.03 12.869 5.63 5.682 10 12.699 13.13 21.052q4.68 12.442 4.68 28.551v10.397h-113.77v-24.204h75c-.06-4.432-1.11-8.381-3.16-11.847-2.04-3.466-4.86-6.165-8.44-8.096q-5.28-2.983-12.18-2.983c-4.66 0-8.84 1.051-12.53 3.153-3.69 2.046-6.62 4.858-8.78 8.438-2.16 3.522-3.3 7.528-3.41 12.017v24.63q0 8.012 3.15 14.063c2.11 3.977 5.09 7.074 8.95 9.29 3.87 2.216 8.47 3.323 13.81 3.323 3.69 0 7.05-.511 10.06-1.534 3.01-1.022 5.59-2.528 7.75-4.517q3.24-2.982 4.86-7.329l38.27 1.108c-1.59 8.579-5.09 16.051-10.49 22.415-5.34 6.306-12.35 11.221-21.05 14.744-8.69 3.466-18.75 5.199-30.17 5.199M1376.97 196.063l-38.27 1.022q-.6-4.09-3.24-7.244-2.64-3.238-6.9-5.028-4.17-1.875-9.72-1.875c-4.83 0-8.95.966-12.35 2.897-3.36 1.932-5 4.546-4.95 7.841-.05 2.557.97 4.773 3.07 6.648 2.16 1.875 6 3.381 11.51 4.517l25.22 4.773c13.07 2.5 22.79 6.647 29.15 12.443q9.63 8.693 9.72 23.011-.09 13.466-8.01 23.438-7.845 9.972-21.48 15.511c-9.09 3.637-19.49 5.455-31.19 5.455-18.7 0-33.44-3.836-44.24-11.506-10.74-7.727-16.87-18.068-18.41-31.023l41.17-1.022c.91 4.772 3.27 8.409 7.07 10.909q5.715 3.75 14.58 3.75c5.34 0 9.68-.995 13.04-2.983 3.35-1.989 5.05-4.631 5.11-7.926-.06-2.955-1.36-5.313-3.92-7.074-2.56-1.818-6.56-3.239-12.02-4.262l-22.84-4.346c-13.12-2.387-22.9-6.79-29.32-13.21q-9.63-9.716-9.54-24.716-.09-13.125 6.99-22.415c4.71-6.25 11.42-11.023 20.11-14.318s18.95-4.944 30.77-4.944c17.72 0 31.7 3.722 41.93 11.165 10.23 7.387 15.88 17.557 16.96 30.512M1388.73 287V156.091h41.67V287zm20.88-146.165c-5.86 0-10.88-1.931-15.09-5.795-4.2-3.921-6.31-8.637-6.31-14.148 0-5.454 2.11-10.114 6.31-13.977 4.21-3.921 9.23-5.881 15.09-5.881 5.91 0 10.93 1.96 15.08 5.881 4.21 3.863 6.31 8.523 6.31 13.977 0 5.511-2.1 10.227-6.31 14.148-4.15 3.864-9.17 5.795-15.08 5.795M1505.95 338.818c-12.44 0-23.09-1.733-31.96-5.199q-13.29-5.198-20.88-14.233-7.59-9.033-9.12-20.454l39.46-2.216c.74 2.67 2.1 5 4.09 6.989 2.05 1.988 4.69 3.522 7.93 4.602 3.29 1.079 7.16 1.619 11.59 1.619 6.99 0 12.76-1.704 17.3-5.113q6.9-5.029 6.9-17.642v-23.012h-1.44q-2.475 6.051-7.5 10.824c-3.36 3.182-7.53 5.682-12.53 7.5-4.95 1.818-10.63 2.727-17.05 2.727q-14.31 0-26.25-6.647c-7.9-4.489-14.23-11.421-19-20.796q-7.08-14.147-7.08-36.392c0-15.284 2.45-27.869 7.33-37.756 4.89-9.943 11.28-17.301 19.18-22.073q11.925-7.16 25.65-7.16 10.32 0 17.64 3.58c4.95 2.33 9.01 5.341 12.19 9.034s5.6 7.529 7.24 11.506h1.2v-22.415h41.5v131.42c0 11.08-2.78 20.427-8.35 28.04-5.57 7.614-13.35 13.381-23.35 17.301-10 3.978-21.56 5.966-34.69 5.966m1.28-83.949c5.06 0 9.38-1.335 12.95-4.005 3.58-2.671 6.34-6.506 8.27-11.506s2.9-10.994 2.9-17.983c0-7.102-.97-13.21-2.9-18.324-1.87-5.17-4.63-9.147-8.27-11.932-3.57-2.784-7.89-4.176-12.95-4.176-5.17 0-9.55 1.421-13.12 4.262q-5.37 4.261-8.19 12.017c-1.81 5.113-2.72 11.164-2.72 18.153s.93 12.983 2.81 17.983q2.805 7.5 8.1 11.506c3.57 2.67 7.95 4.005 13.12 4.005M1628.59 212.341V287h-41.68V156.091h39.63v24.034h1.45c2.9-8.011 7.84-14.29 14.83-18.835 6.99-4.602 15.31-6.904 24.97-6.904 9.21 0 17.19 2.074 23.95 6.222 6.82 4.091 12.11 9.83 15.86 17.216 3.8 7.33 5.68 15.909 5.62 25.739V287h-41.68v-75.256c.06-7.272-1.79-12.954-5.54-17.045q-5.535-6.136-15.42-6.136c-4.38 0-8.24.966-11.59 2.897-3.3 1.875-5.86 4.574-7.67 8.097q-2.64 5.284-2.73 12.784M1788.22 289.472q-20.55 0-35.46-8.097c-9.89-5.454-17.5-13.21-22.84-23.267-5.28-10.114-7.93-22.131-7.93-36.051 0-13.523 2.67-25.341 8.02-35.455 5.34-10.17 12.87-18.068 22.58-23.693q14.58-8.523 34.35-8.523c9.32 0 17.84 1.449 25.57 4.347 7.72 2.898 14.4 7.188 20.02 12.869 5.63 5.682 10 12.699 13.13 21.052 3.12 8.295 4.69 17.812 4.69 28.551v10.397h-113.78v-24.204h75c-.06-4.432-1.11-8.381-3.16-11.847q-3.06-5.2-8.43-8.096c-3.53-1.989-7.59-2.983-12.19-2.983-4.66 0-8.84 1.051-12.53 3.153-3.69 2.046-6.62 4.858-8.78 8.438-2.16 3.522-3.29 7.528-3.41 12.017v24.63c0 5.341 1.06 10.029 3.16 14.063 2.1 3.977 5.08 7.074 8.95 9.29q5.79 3.323 13.8 3.323c3.7 0 7.05-.511 10.06-1.534 3.01-1.022 5.6-2.528 7.76-4.517 2.15-1.988 3.77-4.431 4.85-7.329l38.27 1.108c-1.59 8.579-5.08 16.051-10.48 22.415-5.34 6.306-12.36 11.221-21.05 14.744-8.7 3.466-18.75 5.199-30.17 5.199M1859.63 287V156.091h40.48v23.864h1.37q3.585-12.955 11.67-19.262 8.1-6.392 18.84-6.392 2.895 0 5.97.426c2.04.228 3.94.597 5.71 1.108v36.222c-1.99-.682-4.61-1.222-7.84-1.619-3.19-.398-6.03-.597-8.53-.597q-7.41 0-13.38 3.324c-3.92 2.159-7.02 5.199-9.29 9.119-2.21 3.864-3.32 8.409-3.32 13.637V287z"/><defs><linearGradient id="a" x1="52" x2="332" y1="60" y2="340" gradientUnits="userSpaceOnUse"><stop stop-color="#6366F1"/><stop offset="1" stop-color="#22D3EE"/></linearGradient></defs></svg>